<svg width="260" height="212" fill="none" xmlns="http://www.w3.org/2000/svg"><path d="M97.5 212h148.183c6.259 0 10.094-6.863 6.814-12.193L136.813 11.821c-3.124-5.076-10.502-5.076-13.626 0L7.503 199.808c-3.28 5.33.555 12.193 6.813 12.193H97.5Z" fill="#34495E"/><path d="M227.5 212h16.25L133.417 30.738c-1.558-2.56-5.275-2.56-6.833 0L16.25 212H32.5l94.07-156.783c1.554-2.59 5.307-2.59 6.86 0L227.5 212Z" fill="#66BB6A"/><path d="M219.375 212h-16.25L133.43 95.842c-1.554-2.59-5.306-2.59-6.86 0L56.875 212h-16.25l85.962-140.665c1.56-2.552 5.266-2.552 6.826 0L219.375 212Z" fill="#FFB74D"/><path d="M178.75 212H195l-61.593-100.089c-1.562-2.538-5.252-2.538-6.814 0L65 212h16.25l45.32-75.533c1.554-2.59 5.306-2.59 6.86 0L178.75 212Z" fill="#E57373"/></svg>