<?xml version="1.0" standalone="no"?>
<!DOCTYPE svg PUBLIC "-//W3C//DTD SVG 20010904//EN"
 "http://www.w3.org/TR/2001/REC-SVG-20010904/DTD/svg10.dtd">
<svg version="1.0" xmlns="http://www.w3.org/2000/svg"
 width="260.000000pt" height="260.000000pt" viewBox="0 0 260.000000 260.000000"
 preserveAspectRatio="xMidYMid meet">
<metadata>
Created by potrace 1.14, written by Peter Selinger 2001-2017
</metadata>
<g transform="translate(0.000000,260.000000) scale(0.100000,-0.100000)"
fill="#000000" stroke="none">
<path d="M669 2410 c-30 -16 -56 -50 -101 -130 -26 -46 -81 -143 -97 -170 -5
-8 -74 -127 -153 -264 -78 -137 -158 -274 -175 -305 -145 -249 -146 -254 -87
-354 20 -34 48 -82 62 -107 14 -25 36 -62 49 -82 12 -21 23 -40 23 -43 0 -3
17 -34 39 -68 21 -34 58 -96 81 -137 23 -41 50 -88 60 -105 10 -16 68 -118
130 -225 61 -107 125 -207 141 -222 l29 -28 630 0 630 0 29 28 c23 22 321 521
321 538 0 3 5 10 10 17 28 31 289 499 290 519 4 49 9 39 -120 263 -60 103 -95
165 -115 200 -287 505 -375 649 -405 668 -33 21 -43 21 -637 21 -523 1 -608
-1 -634 -14z m884 -364 c117 -67 281 -162 365 -210 84 -49 156 -96 160 -105 5
-9 8 -213 8 -454 -1 -376 -3 -439 -16 -448 -92 -61 -757 -439 -771 -439 -8 0
-36 14 -62 30 -26 17 -50 30 -52 30 -4 0 -134 74 -175 99 -13 8 -188 109 -255
147 -134 75 -222 129 -230 139 -7 8 -10 170 -10 453 0 489 -5 451 70 492 22
12 113 65 203 116 401 232 488 281 502 286 18 6 5 13 263 -136z"/>
<path d="M1095 1779 c-104 -61 -220 -128 -256 -150 l-67 -39 0 -299 c0 -342
-11 -302 108 -371 86 -49 90 -51 270 -155 74 -43 142 -78 152 -77 17 1 480
264 510 290 16 13 17 43 17 308 -1 315 0 308 -52 335 -12 7 -122 70 -244 140
-122 71 -227 129 -235 129 -7 -1 -98 -51 -203 -111z"/>
</g>
</svg>
