<?xml version="1.0" standalone="no"?>
<!DOCTYPE svg PUBLIC "-//W3C//DTD SVG 20010904//EN"
 "http://www.w3.org/TR/2001/REC-SVG-20010904/DTD/svg10.dtd">
<svg version="1.0" xmlns="http://www.w3.org/2000/svg"
 width="260.000000pt" height="260.000000pt" viewBox="0 0 260.000000 260.000000"
 preserveAspectRatio="xMidYMid meet">
<metadata>
Created by potrace 1.14, written by Peter Selinger 2001-2017
</metadata>
<g transform="translate(0.000000,260.000000) scale(0.100000,-0.100000)"
fill="#000000" stroke="none">
<path d="M1268 2272 c-15 -6 -78 -84 -78 -96 0 -3 -33 -58 -73 -123 -329 -527
-1011 -1640 -1034 -1684 -19 -38 -22 -51 -13 -74 22 -58 -51 -54 1230 -54
1249 0 1203 -2 1227 44 21 40 15 50 -191 384 -41 67 -44 76 -31 91 8 9 15 19
15 22 0 4 29 55 64 115 153 261 208 360 213 386 7 32 4 38 -94 206 -40 67 -73
124 -73 126 0 2 -27 49 -60 104 -33 56 -60 103 -60 106 0 11 -65 111 -80 122
-11 9 -103 12 -352 13 l-337 0 -92 151 c-100 164 -123 184 -181 161z m664
-495 c40 -24 80 -46 88 -50 8 -4 22 -11 30 -17 28 -18 145 -85 182 -105 87
-45 80 -19 79 -310 0 -197 -3 -261 -13 -271 -13 -12 -123 -74 -131 -74 -3 0
-21 28 -42 62 -23 39 -32 64 -25 66 6 2 23 14 37 26 25 21 25 22 25 190 0 184
2 178 -64 215 -20 11 -84 48 -142 81 l-105 62 -44 -26 -44 -26 -37 61 c-37 62
-43 79 -27 79 5 0 40 18 77 40 38 22 72 40 76 40 4 0 40 -19 80 -43z"/>
</g>
</svg>
